<svg width="17" height="25" viewBox="0 0 17 25" fill="none" xmlns="http://www.w3.org/2000/svg">
<rect width="17" height="24.29" fill="white" fill-opacity="0.01"/>
<path d="M10.8918 1.26088L16.7356 6.30894C16.9119 6.4632 17 6.66232 17 6.9063C17 7.15028 16.9119 7.3494 16.7356 7.50366L10.8918 12.5517C10.6258 12.7721 10.3377 12.8107 10.0276 12.6674C9.71755 12.5226 9.5625 12.2849 9.5625 11.9544V9.0313C8.47796 9.05334 7.55949 9.12496 6.80708 9.24616C6.05468 9.36894 5.40144 9.56885 4.84736 9.84588C4.29486 10.1213 3.89111 10.492 3.63611 10.958C3.38111 11.4223 3.25361 12.0087 3.25361 12.717C3.25361 13.4253 3.39764 14.2557 3.68569 15.208C3.77384 15.4724 3.70222 15.6826 3.47083 15.8384C3.23787 15.9926 2.9994 15.9816 2.75542 15.8053C1.98097 15.2513 1.32852 14.5044 0.798056 13.5646C0.266019 12.6233 0 11.6655 0 10.6912C0 9.71681 0.166065 8.86445 0.498194 8.13408C0.830324 7.40371 1.27264 6.81186 1.82514 6.35852C2.37921 5.90519 3.07653 5.54 3.91708 5.26297C4.75921 4.98593 5.62259 4.79783 6.50722 4.69866C7.39343 4.59949 8.41185 4.53889 9.5625 4.51686V1.86061C9.5625 1.52848 9.71755 1.29 10.0276 1.14519C10.3377 1.00195 10.6258 1.04051 10.8918 1.26088Z" fill="#35D397"/>
</svg>
