<svg width="17" height="25" viewBox="0 0 17 25" fill="none" xmlns="http://www.w3.org/2000/svg">
<g clip-path="url(#clip0_1_302)">
<rect width="17" height="24.29" fill="white" fill-opacity="0.01"/>
<path d="M10.8918 17.2609L16.7356 22.3089C16.9119 22.4632 17 22.6623 17 22.9063C17 23.1503 16.9119 23.3494 16.7356 23.5037L10.8918 28.5517C10.6258 28.7721 10.3377 28.8107 10.0276 28.6674C9.71755 28.5226 9.5625 28.2849 9.5625 27.9544V25.0313C8.47796 25.0533 7.55949 25.125 6.80708 25.2462C6.05468 25.3689 5.40144 25.5688 4.84736 25.8459C4.29486 26.1213 3.89111 26.492 3.63611 26.958C3.38111 27.4223 3.25361 28.0087 3.25361 28.717C3.25361 29.4253 3.39764 30.2557 3.68569 31.208C3.77384 31.4724 3.70222 31.6826 3.47083 31.8384C3.23787 31.9926 2.9994 31.9816 2.75542 31.8053C1.98097 31.2513 1.32852 30.5044 0.798056 29.5646C0.266019 28.6233 0 27.6655 0 26.6912C0 25.7168 0.166065 24.8644 0.498194 24.1341C0.830324 23.4037 1.27264 22.8119 1.82514 22.3585C2.37921 21.9052 3.07653 21.54 3.91708 21.263C4.75921 20.9859 5.62259 20.7978 6.50722 20.6987C7.39343 20.5995 8.41185 20.5389 9.5625 20.5169V17.8606C9.5625 17.5285 9.71755 17.29 10.0276 17.1452C10.3377 17.0019 10.6258 17.0405 10.8918 17.2609Z" fill="#35D397"/>
</g>
<defs>
<clipPath id="clip0_1_302">
<rect width="17" height="24.29" fill="white"/>
</clipPath>
</defs>
</svg>
