<svg width="361" height="52" viewBox="0 0 361 52" fill="none" xmlns="http://www.w3.org/2000/svg">
<g clip-path="url(#clip0_1_281)">
<rect width="17.5" height="38.57" transform="translate(149.406 11.5938)" fill="white" fill-opacity="0.01"/>
<path d="M153.312 22.7042V34.9687H149.678V22.7042H153.312ZM153.001 20.3679C152.584 20.8054 152.089 21.0242 151.515 21.0242C150.942 21.0242 150.448 20.8054 150.031 20.3679C149.615 19.9304 149.406 19.4103 149.406 18.8075C149.406 18.2067 149.615 17.6875 150.031 17.25C150.448 16.8125 150.942 16.5938 151.515 16.5938C152.089 16.5938 152.584 16.8125 153.001 17.25C153.417 17.6875 153.626 18.2067 153.626 18.8075C153.626 19.4103 153.417 19.9304 153.001 20.3679ZM166.906 28.2429V34.9687H163.273V28.9808C163.273 28.5161 163.26 28.1399 163.234 27.8521C163.208 27.5662 163.143 27.2386 163.04 26.8692C162.936 26.4997 162.747 26.2187 162.473 26.0262C162.199 25.8357 161.841 25.7404 161.398 25.7404C160.539 25.7404 159.959 26.0272 159.659 26.6008C159.361 27.1764 159.212 27.9425 159.212 28.8992V34.9687H155.578V22.7042H159.095V24.3871H159.134C159.393 23.8407 159.823 23.3692 160.423 22.9725C161.021 22.5758 161.737 22.3775 162.57 22.3775C163.455 22.3775 164.191 22.5204 164.778 22.8062C165.364 23.094 165.806 23.5179 166.106 24.0779C166.404 24.6399 166.613 25.2485 166.731 25.9037C166.848 26.561 166.906 27.3407 166.906 28.2429Z" fill="white"/>
</g>
<g clip-path="url(#clip1_1_281)">
<rect width="17.5" height="38.57" transform="translate(113.016 11.5938)" fill="white" fill-opacity="0.01"/>
<path d="M118.582 23.7513C119.455 22.8354 120.516 22.3775 121.766 22.3775C123.016 22.3775 124.077 22.8354 124.949 23.7513C125.821 24.6671 126.257 25.7812 126.257 27.0937C126.257 28.4062 125.821 29.5204 124.949 30.4362C124.077 31.3521 123.016 31.81 121.766 31.81C120.516 31.81 119.455 31.3521 118.582 30.4362C117.71 29.5204 117.274 28.4062 117.274 27.0937C117.274 25.7812 117.71 24.6671 118.582 23.7513ZM119.696 29.2667C120.268 29.8694 120.958 30.1708 121.766 30.1708C122.573 30.1708 123.263 29.8694 123.835 29.2667C124.409 28.6658 124.696 27.9415 124.696 27.0937C124.696 26.246 124.409 25.5217 123.835 24.9208C123.263 24.3181 122.573 24.0167 121.766 24.0167C120.958 24.0167 120.268 24.3181 119.696 24.9208C119.122 25.5217 118.835 26.246 118.835 27.0937C118.835 27.9415 119.122 28.6658 119.696 29.2667ZM127.177 21.4121C127.371 21.6182 127.468 21.8719 127.468 22.1733C127.468 22.4728 127.371 22.7324 127.177 22.9521C126.98 23.1699 126.74 23.2787 126.455 23.2787C126.167 23.2787 125.919 23.1699 125.71 22.9521C125.503 22.7324 125.399 22.4728 125.399 22.1733C125.399 21.8719 125.503 21.6182 125.71 21.4121C125.919 21.2079 126.167 21.1058 126.455 21.1058C126.74 21.1058 126.98 21.2079 127.177 21.4121ZM130.477 23.3196C130.503 24.0585 130.516 25.3165 130.516 27.0937C130.516 28.871 130.503 30.129 130.477 30.8679C130.399 32.5362 129.924 33.8283 129.052 34.7442C128.18 35.66 126.949 36.1451 125.36 36.1996C124.656 36.254 123.458 36.2812 121.766 36.2812C120.073 36.2812 118.875 36.254 118.171 36.1996C116.582 36.1179 115.352 35.626 114.48 34.7237C113.607 33.8215 113.145 32.5362 113.093 30.8679C113.042 30.129 113.016 28.871 113.016 27.0937C113.016 25.3165 113.042 24.0449 113.093 23.2787C113.171 21.6376 113.64 20.366 114.499 19.4637C115.358 18.5343 116.582 18.0287 118.171 17.9471C118.875 17.9199 120.073 17.9062 121.766 17.9062C123.458 17.9062 124.656 17.9199 125.36 17.9471C126.949 18.0287 128.18 18.5275 129.052 19.4433C129.924 20.3592 130.399 21.6512 130.477 23.3196ZM128.602 32.5071C128.68 32.2893 128.744 32.0093 128.796 31.6671C128.848 31.3249 128.887 30.9146 128.913 30.4362C128.941 29.9579 128.955 29.5681 128.955 29.2667C128.955 28.9672 128.955 28.5433 128.955 27.995C128.955 27.4486 128.955 27.1414 128.955 27.0733C128.955 27.0053 128.955 26.7049 128.955 26.1721C128.955 25.6374 128.955 25.2203 128.955 24.9208C128.955 24.6194 128.941 24.2296 128.913 23.7513C128.887 23.2729 128.848 22.8626 128.796 22.5204C128.744 22.1782 128.68 21.8982 128.602 21.6804C128.289 20.8326 127.729 20.2444 126.921 19.9158C126.714 19.8342 126.447 19.7661 126.121 19.7117C125.795 19.6572 125.405 19.6164 124.949 19.5892C124.493 19.5619 124.129 19.5483 123.855 19.5483C123.582 19.5483 123.179 19.5483 122.643 19.5483C122.11 19.5483 121.817 19.5483 121.766 19.5483C121.714 19.5483 121.428 19.5483 120.907 19.5483C120.385 19.5483 119.981 19.5483 119.696 19.5483C119.409 19.5483 119.038 19.5619 118.582 19.5892C118.127 19.6164 117.736 19.6572 117.41 19.7117C117.084 19.7661 116.817 19.8342 116.61 19.9158C115.803 20.2444 115.242 20.8326 114.93 21.6804C114.852 21.8982 114.787 22.1782 114.735 22.5204C114.683 22.8626 114.644 23.2729 114.618 23.7513C114.592 24.2296 114.58 24.6126 114.58 24.9004C114.58 25.1862 114.58 25.6101 114.58 26.1721C114.58 26.7321 114.58 27.0393 114.58 27.0937C114.58 27.1482 114.58 27.4486 114.58 27.995C114.58 28.5433 114.58 28.9672 114.58 29.2667C114.58 29.5681 114.592 29.9579 114.618 30.4362C114.644 30.9146 114.683 31.3249 114.735 31.6671C114.787 32.0093 114.852 32.2893 114.93 32.5071C115.268 33.3549 115.829 33.9431 116.61 34.2717C116.817 34.3533 117.084 34.4214 117.41 34.4758C117.736 34.5303 118.127 34.5711 118.582 34.5983C119.038 34.6275 119.403 34.6421 119.677 34.6421C119.949 34.6421 120.353 34.6421 120.888 34.6421C121.421 34.6421 121.714 34.6421 121.766 34.6421C121.843 34.6421 122.136 34.6421 122.643 34.6421C123.153 34.6421 123.55 34.6421 123.835 34.6421C124.122 34.6421 124.493 34.6275 124.949 34.5983C125.405 34.5711 125.795 34.5303 126.121 34.4758C126.447 34.4214 126.714 34.3533 126.921 34.2717C127.729 33.9158 128.289 33.3276 128.602 32.5071Z" fill="white"/>
</g>
<g clip-path="url(#clip2_1_281)">
<rect width="20" height="40.57" transform="translate(73.2812 10.5938)" fill="white" fill-opacity="0.01"/>
<path d="M88.4844 20.4688H91.2422L85.2188 27.3516L92.3047 36.7188H86.7578L82.4102 31.0391L77.4414 36.7188H74.6797L81.1211 29.3555L74.3281 20.4688H80.0156L83.9414 25.6602L88.4844 20.4688ZM87.5156 35.0703H89.043L79.1836 22.0312H77.543L87.5156 35.0703Z" fill="white"/>
</g>
<g clip-path="url(#clip3_1_281)">
<rect width="12.5" height="38.57" transform="translate(41.8906 11.5938)" fill="white" fill-opacity="0.01"/>
<path d="M53.3351 24.5912L52.7878 28.4062H49.8601V37.5937H45.9545V28.4062H42.7878V24.5912H45.9545V21.7212C45.9545 20.0801 46.3841 18.8153 47.2434 17.9267C48.1027 17.0381 49.248 16.5938 50.6795 16.5938C51.0962 16.5938 51.5388 16.6142 52.0073 16.655C52.4758 16.6958 52.8406 16.7435 53.1017 16.7979L53.4934 16.8387V20.0792H51.9295C51.1999 20.0792 50.673 20.2775 50.349 20.6742C50.023 21.0708 49.8601 21.556 49.8601 22.1296V24.5912H53.3351Z" fill="white"/>
</g>
<g clip-path="url(#clip4_1_281)">
<rect width="22.5" height="38.57" transform="translate(0.5 11.5938)" fill="white" fill-opacity="0.01"/>
<path d="M21.9833 27.6804C22.1148 28.1996 22.213 28.9103 22.2778 29.8125C22.3426 30.7147 22.388 31.4944 22.4139 32.1517V33.0937C22.4139 35.5554 22.2704 37.3735 21.9833 38.5479C21.7241 39.561 21.0861 40.2172 20.0695 40.5167C19.575 40.6547 18.638 40.7578 17.2583 40.8258C15.8787 40.8939 14.6158 40.9415 13.4695 40.9687H11.75C7.29631 40.9687 4.52316 40.8181 3.43057 40.5167C2.4139 40.2172 1.77594 39.561 1.51668 38.5479C1.38519 38.0287 1.28705 37.3112 1.22223 36.3954C1.15742 35.4796 1.11205 34.7076 1.08612 34.0796V33.0937C1.08612 30.6593 1.22964 28.8549 1.51668 27.6804C1.64631 27.1885 1.88057 26.7646 2.21945 26.4087C2.55834 26.0529 2.96205 25.8069 3.43057 25.6708C3.92501 25.5328 4.86205 25.4297 6.24168 25.3617C7.62316 25.2936 8.88612 25.246 10.0306 25.2188H11.75C16.2037 25.2188 18.9769 25.3694 20.0695 25.6708C20.538 25.8069 20.9417 26.0529 21.2806 26.4087C21.6195 26.7646 21.8537 27.1885 21.9833 27.6804ZM9.5639 29.7717V36.4567L15.1472 33.0937L9.5639 29.7717Z" fill="white"/>
</g>
<defs>
<clipPath id="clip0_1_281">
<rect width="17.5" height="38.57" fill="white" transform="translate(149.406 11.5938)"/>
</clipPath>
<clipPath id="clip1_1_281">
<rect width="17.5" height="38.57" fill="white" transform="translate(113.016 11.5938)"/>
</clipPath>
<clipPath id="clip2_1_281">
<rect width="20" height="40.57" fill="white" transform="translate(73.2812 10.5938)"/>
</clipPath>
<clipPath id="clip3_1_281">
<rect width="12.5" height="38.57" fill="white" transform="translate(41.8906 11.5938)"/>
</clipPath>
<clipPath id="clip4_1_281">
<rect width="22.5" height="38.57" fill="white" transform="translate(0.5 11.5938)"/>
</clipPath>
</defs>
</svg>
